<svg width="22" height="20" viewBox="0 0 22 20" fill="none" xmlns="http://www.w3.org/2000/svg">
<path fill-rule="evenodd" clip-rule="evenodd" d="M19.2992 2.70627C19.8657 3.2603 20.3187 3.91948 20.6328 4.64689C20.9586 5.40392 21.125 6.20783 21.1227 7.03517C21.1227 7.81564 20.9633 8.62892 20.6469 9.45627C20.3844 10.1477 20.0023 10.8649 19.5172 11.5891C18.7484 12.7352 17.6914 13.9305 16.3789 15.1422C14.2016 17.1508 12.05 18.536 11.9586 18.5945L11.4031 18.9508C11.157 19.1078 10.8406 19.1078 10.5945 18.9508L10.0391 18.5945C9.94766 18.5383 7.79375 17.1508 5.61875 15.1422C4.30625 13.9305 3.24922 12.7352 2.48047 11.5891C1.99531 10.8649 1.61563 10.1477 1.35078 9.45627C1.03438 8.62892 0.875 7.81564 0.875 7.03517C0.875 6.20783 1.04141 5.40392 1.36719 4.64689C1.6805 3.91901 2.13359 3.25968 2.70078 2.70627C3.27031 2.14845 3.93359 1.71017 4.66953 1.40549C5.43125 1.08908 6.2375 0.929704 7.06953 0.929704C8.225 0.929704 9.35234 1.24611 10.332 1.84377C10.5664 1.98674 10.7891 2.14377 11 2.31486C11.2109 2.14377 11.4336 1.98674 11.668 1.84377C12.6477 1.24611 13.775 0.929704 14.9305 0.929704C15.7541 0.927808 16.5699 1.08953 17.3305 1.40549C18.064 1.70898 18.7323 2.15058 19.2992 2.70627ZM11 17.0969C11.1618 17.3495 11.1623 17.3492 11.1624 17.3491L11.1638 17.3482L11.1687 17.3451L11.1874 17.3329C11.2037 17.3223 11.2277 17.3067 11.2589 17.2861C11.3212 17.245 11.412 17.1845 11.5274 17.1059C11.7581 16.9488 12.087 16.7194 12.4814 16.4296C13.2696 15.8503 14.3218 15.0275 15.3754 14.0548C16.4277 13.0832 17.4889 11.955 18.2891 10.764C19.0866 9.57684 19.6438 8.29921 19.6438 7.03516C19.6438 4.47545 17.5279 2.41094 14.9305 2.41094C13.2912 2.41094 11.8448 3.23219 11 4.48028C10.1552 3.23219 8.7088 2.41094 7.06953 2.41094C4.47214 2.41094 2.35625 4.47545 2.35625 7.03516C2.35625 8.29921 2.91337 9.57684 3.71094 10.764C4.51108 11.955 5.57233 13.0832 6.62461 14.0548C7.67815 15.0275 8.73042 15.8503 9.51863 16.4296C9.91299 16.7194 10.2419 16.9488 10.4726 17.1059C10.588 17.1845 10.6788 17.245 10.7411 17.2861C10.7723 17.3067 10.7963 17.3223 10.8126 17.3329L10.8313 17.3451L10.8362 17.3482L10.838 17.3493L11 17.4532L11.1618 17.3495L11 17.0969ZM19.3438 7.03517C19.3438 7.03517 19.3438 7.03516 19.3438 7.03516C19.3438 6.73663 19.3129 6.44517 19.2541 6.16367C19.3129 6.44517 19.3438 6.73664 19.3438 7.03517ZM10.838 17.3493L11 17.0969C10.8382 17.3495 10.8381 17.3494 10.838 17.3493ZM7.06953 2.71095C4.93672 2.71095 3.15741 4.19316 2.74591 6.16367C3.1574 4.19315 4.93671 2.71094 7.06953 2.71094C8.65554 2.71094 10.0467 3.5304 10.8248 4.76027C10.8872 4.85896 10.9457 4.9603 11 5.06406C11.0543 4.9603 11.1128 4.85896 11.1752 4.76027C11.9533 3.5304 13.3445 2.71094 14.9305 2.71094C15.6981 2.71094 16.42 2.90296 17.0487 3.24064C16.42 2.90296 15.6981 2.71095 14.9305 2.71095C13.2172 2.71095 11.7312 3.6672 11 5.06408C10.2688 3.6672 8.78281 2.71095 7.06953 2.71095Z" fill="#748BA0"/>
</svg>
