<svg width="24" height="24" viewBox="0 0 24 24" fill="none" xmlns="http://www.w3.org/2000/svg">
<path d="M5.1 9L3 10.5L4.5 19.2L6 21L18.9 20.4L21 11.4L19.2 9.3L5.1 9Z" fill="#748BA0" fill-opacity="0.15"/>
<path d="M8.75 13C8.75 12.8011 8.67098 12.6103 8.53033 12.4697C8.38968 12.329 8.19891 12.25 8 12.25C7.80109 12.25 7.61032 12.329 7.46967 12.4697C7.32902 12.6103 7.25 12.8011 7.25 13V17C7.25 17.1989 7.32902 17.3897 7.46967 17.5303C7.61032 17.671 7.80109 17.75 8 17.75C8.19891 17.75 8.38968 17.671 8.53033 17.5303C8.67098 17.3897 8.75 17.1989 8.75 17V13ZM16 12.25C16.1989 12.25 16.3897 12.329 16.5303 12.4697C16.671 12.6103 16.75 12.8011 16.75 13V17C16.75 17.1989 16.671 17.3897 16.5303 17.5303C16.3897 17.671 16.1989 17.75 16 17.75C15.8011 17.75 15.6103 17.671 15.4697 17.5303C15.329 17.3897 15.25 17.1989 15.25 17V13C15.25 12.8011 15.329 12.6103 15.4697 12.4697C15.6103 12.329 15.8011 12.25 16 12.25ZM12.75 13C12.75 12.8011 12.671 12.6103 12.5303 12.4697C12.3897 12.329 12.1989 12.25 12 12.25C11.8011 12.25 11.6103 12.329 11.4697 12.4697C11.329 12.6103 11.25 12.8011 11.25 13V17C11.25 17.1989 11.329 17.3897 11.4697 17.5303C11.6103 17.671 11.8011 17.75 12 17.75C12.1989 17.75 12.3897 17.671 12.5303 17.5303C12.671 17.3897 12.75 17.1989 12.75 17V13Z" fill="#748BA0"/>
<path fill-rule="evenodd" clip-rule="evenodd" d="M17.2739 3.473C16.7979 3.287 16.2649 3.256 15.5819 3.251C15.44 2.95147 15.216 2.69838 14.936 2.52117C14.6559 2.34396 14.3313 2.24993 13.9999 2.25H9.99988C9.66857 2.24984 9.34402 2.34373 9.06397 2.52075C8.78392 2.69777 8.55987 2.95066 8.41788 3.25C7.73388 3.256 7.20188 3.287 6.72588 3.473C6.15765 3.69527 5.66347 4.07301 5.29988 4.563C4.93288 5.056 4.75988 5.69 4.52388 6.561L3.89588 8.864C3.50211 9.0619 3.15716 9.34469 2.88588 9.692C2.26388 10.489 2.15388 11.438 2.26488 12.526C2.37188 13.582 2.70488 14.912 3.12088 16.576L3.14688 16.683C3.41088 17.735 3.62388 18.59 3.87788 19.257C4.14288 19.953 4.47988 20.523 5.03388 20.956C5.58888 21.389 6.22388 21.576 6.96288 21.666C7.67088 21.75 8.55288 21.75 9.63788 21.75H14.3619C15.4469 21.75 16.3279 21.75 17.0369 21.665C17.7769 21.577 18.4109 21.389 18.9649 20.955C19.5199 20.523 19.8559 19.953 20.1209 19.257C20.3759 18.59 20.5889 17.735 20.8519 16.682L20.8789 16.577C21.2949 14.912 21.6269 13.582 21.7349 12.527C21.8449 11.437 21.7349 10.489 21.1129 9.692C20.8419 9.34481 20.4973 9.06202 20.1039 8.864L19.4759 6.561C19.2389 5.69 19.0659 5.056 18.6999 4.562C18.3362 4.07238 17.842 3.695 17.2739 3.473ZM7.27188 4.87C7.49188 4.784 7.75788 4.759 8.41888 4.752C8.70088 5.342 9.30288 5.75 9.99888 5.75H13.9989C14.6969 5.75 15.2989 5.342 15.5809 4.752C16.2419 4.759 16.5079 4.784 16.7279 4.87C17.0339 4.99 17.2999 5.193 17.4959 5.457C17.6719 5.694 17.7749 6.025 18.0659 7.092L18.4199 8.389C17.3819 8.25 16.0419 8.25 14.3769 8.25H9.62188C7.95788 8.25 6.61788 8.25 5.57988 8.389L5.93388 7.092C6.22388 6.025 6.32788 5.694 6.50388 5.457C6.69969 5.19311 6.96584 4.98968 7.27188 4.87ZM9.99988 3.75C9.93357 3.75 9.86999 3.77634 9.8231 3.82322C9.77622 3.87011 9.74988 3.9337 9.74988 4C9.74988 4.0663 9.77622 4.12989 9.8231 4.17678C9.86999 4.22366 9.93357 4.25 9.99988 4.25H13.9999C14.0662 4.25 14.1298 4.22366 14.1767 4.17678C14.2235 4.12989 14.2499 4.0663 14.2499 4C14.2499 3.9337 14.2235 3.87011 14.1767 3.82322C14.1298 3.77634 14.0662 3.75 13.9999 3.75H9.99988ZM4.06888 10.615C4.34788 10.258 4.78888 10.018 5.69888 9.886C6.62988 9.752 7.89188 9.75 9.68488 9.75H14.3149C16.1079 9.75 17.3689 9.752 18.2999 9.886C19.2109 10.018 19.6519 10.258 19.9309 10.616C20.2099 10.973 20.3359 11.458 20.2419 12.374C20.1469 13.31 19.8429 14.534 19.4079 16.274C19.1309 17.382 18.9379 18.15 18.7199 18.724C18.5079 19.278 18.3009 19.571 18.0419 19.774C17.7829 19.976 17.4479 20.105 16.8589 20.176C16.2489 20.249 15.4589 20.25 14.3149 20.25H9.68488C8.54088 20.25 7.74988 20.249 7.14088 20.176C6.55088 20.106 6.21688 19.976 5.95788 19.774C5.69788 19.571 5.49088 19.278 5.27988 18.724C5.06188 18.15 4.86888 17.382 4.59088 16.274C4.15688 14.534 3.85188 13.31 3.75688 12.374C3.66388 11.458 3.78988 10.972 4.06888 10.615Z" fill="#748BA0"/>
</svg>
