<svg width="20" height="20" viewBox="0 0 20 20" fill="none" xmlns="http://www.w3.org/2000/svg">
<path d="M3.1 7L1 8.5L2.5 17.2L4 19L16.9 18.4L19 9.4L17.2 7.3L3.1 7Z" fill="#748BA0" fill-opacity="0.15"/>
<path d="M6.75 11C6.75 10.8011 6.67098 10.6103 6.53033 10.4697C6.38968 10.329 6.19891 10.25 6 10.25C5.80109 10.25 5.61032 10.329 5.46967 10.4697C5.32902 10.6103 5.25 10.8011 5.25 11V15C5.25 15.1989 5.32902 15.3897 5.46967 15.5303C5.61032 15.671 5.80109 15.75 6 15.75C6.19891 15.75 6.38968 15.671 6.53033 15.5303C6.67098 15.3897 6.75 15.1989 6.75 15V11ZM14 10.25C14.1989 10.25 14.3897 10.329 14.5303 10.4697C14.671 10.6103 14.75 10.8011 14.75 11V15C14.75 15.1989 14.671 15.3897 14.5303 15.5303C14.3897 15.671 14.1989 15.75 14 15.75C13.8011 15.75 13.6103 15.671 13.4697 15.5303C13.329 15.3897 13.25 15.1989 13.25 15V11C13.25 10.8011 13.329 10.6103 13.4697 10.4697C13.6103 10.329 13.8011 10.25 14 10.25ZM10.75 11C10.75 10.8011 10.671 10.6103 10.5303 10.4697C10.3897 10.329 10.1989 10.25 10 10.25C9.80109 10.25 9.61032 10.329 9.46967 10.4697C9.32902 10.6103 9.25 10.8011 9.25 11V15C9.25 15.1989 9.32902 15.3897 9.46967 15.5303C9.61032 15.671 9.80109 15.75 10 15.75C10.1989 15.75 10.3897 15.671 10.5303 15.5303C10.671 15.3897 10.75 15.1989 10.75 15V11Z" fill="#0C1D2E"/>
<path fill-rule="evenodd" clip-rule="evenodd" d="M15.2739 1.473C14.7979 1.287 14.2649 1.256 13.5819 1.251C13.44 0.951472 13.216 0.69838 12.936 0.521172C12.6559 0.343965 12.3313 0.249927 11.9999 0.25H7.99988C7.66857 0.249837 7.34402 0.343726 7.06397 0.52075C6.78392 0.697774 6.55987 0.950659 6.41788 1.25C5.73388 1.256 5.20188 1.287 4.72588 1.473C4.15765 1.69527 3.66347 2.07301 3.29988 2.563C2.93288 3.056 2.75988 3.69 2.52388 4.561L1.89588 6.864C1.50211 7.0619 1.15716 7.34469 0.885879 7.692C0.263879 8.489 0.153879 9.438 0.264879 10.526C0.371879 11.582 0.704879 12.912 1.12088 14.576L1.14688 14.683C1.41088 15.735 1.62388 16.59 1.87788 17.257C2.14288 17.953 2.47988 18.523 3.03388 18.956C3.58888 19.389 4.22388 19.576 4.96288 19.666C5.67088 19.75 6.55288 19.75 7.63788 19.75H12.3619C13.4469 19.75 14.3279 19.75 15.0369 19.665C15.7769 19.577 16.4109 19.389 16.9649 18.955C17.5199 18.523 17.8559 17.953 18.1209 17.257C18.3759 16.59 18.5889 15.735 18.8519 14.682L18.8789 14.577C19.2949 12.912 19.6269 11.582 19.7349 10.527C19.8449 9.437 19.7349 8.489 19.1129 7.692C18.8419 7.34481 18.4973 7.06202 18.1039 6.864L17.4759 4.561C17.2389 3.69 17.0659 3.056 16.6999 2.562C16.3362 2.07238 15.842 1.695 15.2739 1.473ZM5.27188 2.87C5.49188 2.784 5.75788 2.759 6.41888 2.752C6.70088 3.342 7.30288 3.75 7.99888 3.75H11.9989C12.6969 3.75 13.2989 3.342 13.5809 2.752C14.2419 2.759 14.5079 2.784 14.7279 2.87C15.0339 2.99 15.2999 3.193 15.4959 3.457C15.6719 3.694 15.7749 4.025 16.0659 5.092L16.4199 6.389C15.3819 6.25 14.0419 6.25 12.3769 6.25H7.62188C5.95788 6.25 4.61788 6.25 3.57988 6.389L3.93388 5.092C4.22388 4.025 4.32788 3.694 4.50388 3.457C4.69969 3.19311 4.96584 2.98968 5.27188 2.87ZM7.99988 1.75C7.93357 1.75 7.86999 1.77634 7.8231 1.82322C7.77622 1.87011 7.74988 1.9337 7.74988 2C7.74988 2.0663 7.77622 2.12989 7.8231 2.17678C7.86999 2.22366 7.93357 2.25 7.99988 2.25H11.9999C12.0662 2.25 12.1298 2.22366 12.1767 2.17678C12.2235 2.12989 12.2499 2.0663 12.2499 2C12.2499 1.9337 12.2235 1.87011 12.1767 1.82322C12.1298 1.77634 12.0662 1.75 11.9999 1.75H7.99988ZM2.06888 8.615C2.34788 8.258 2.78888 8.018 3.69888 7.886C4.62988 7.752 5.89188 7.75 7.68488 7.75H12.3149C14.1079 7.75 15.3689 7.752 16.2999 7.886C17.2109 8.018 17.6519 8.258 17.9309 8.616C18.2099 8.973 18.3359 9.458 18.2419 10.374C18.1469 11.31 17.8429 12.534 17.4079 14.274C17.1309 15.382 16.9379 16.15 16.7199 16.724C16.5079 17.278 16.3009 17.571 16.0419 17.774C15.7829 17.976 15.4479 18.105 14.8589 18.176C14.2489 18.249 13.4589 18.25 12.3149 18.25H7.68488C6.54088 18.25 5.74988 18.249 5.14088 18.176C4.55088 18.106 4.21688 17.976 3.95788 17.774C3.69788 17.571 3.49088 17.278 3.27988 16.724C3.06188 16.15 2.86888 15.382 2.59088 14.274C2.15688 12.534 1.85188 11.31 1.75688 10.374C1.66388 9.458 1.78988 8.972 2.06888 8.615Z" fill="#0C1D2E"/>
</svg>
